Coordinates
version=1
nRows=16
nColumns=36
inDegrees=yes

Units are S.I. units (second, meters, Newtons, ...)
If the header above contains a line with 'inDegrees', this indicates whether rotational values are in degrees (yes) or radians (no).

endheader
time	pelvis_tilt	pelvis_list	pelvis_rotation	pelvis_tx	pelvis_ty	pelvis_tz	hip_flexion_r	hip_adduction_r	hip_rotation_r	knee_angle_r	knee_angle_r_beta	ankle_angle_r	subtalar_angle_r	mtp_angle_r	hip_flexion_l	hip_adduction_l	hip_rotation_l	knee_angle_l	knee_angle_l_beta	ankle_angle_l	subtalar_angle_l	mtp_angle_l	lumbar_extension	lumbar_bending	lumbar_rotation	arm_flex_r	arm_add_r	arm_rot_r	elbow_flex_r	pro_sup_r	arm_flex_l	arm_add_l	arm_rot_l	elbow_flex_l	pro_sup_l
      1.71666670	     -5.79108058	     -2.99561264	      1.60243838	     -0.89181633	      1.25360001	     -0.10039480	      4.55518868	      3.17854488	     -3.92503299	      6.16499759	      0.10759951	      2.13713119	    -21.38077846	     -7.49999987	      1.77888453	     -2.74139361	      9.58132333	      1.11971679	      0.01954274	      8.98266947	     -9.13218294	     -7.49999987	      7.12900920	     -6.39184037	     -4.15310486	    135.37266816	    -46.61443806	     55.73236272	     59.83326280	     77.28790462	     -2.84354352	    -11.04466362	     25.71221925	     21.32855594	     57.34036882
      1.72083330	     -5.87126256	     -2.96298480	      1.66782234	     -0.89223580	      1.25366370	     -0.10132362	      4.62978961	      3.08497044	     -3.97628411	      6.18888793	      0.10801647	      2.03711900	    -21.46543217	     -7.49999987	      1.84868994	     -2.67014644	      9.52520307	      1.11474307	      0.01945594	      8.92243470	     -9.39177496	     -7.49999987	      7.23443147	     -6.47149435	     -4.01381806	    133.67240331	    -47.88644935	     53.76629801	     63.00290454	     76.42118989	     -2.73088729	    -11.04033165	     25.92147551	     21.13745738	     57.59733109
      1.72500000	     -5.88450076	     -2.89289113	      1.59987401	     -0.89275872	      1.25854019	     -0.10174462	      4.60350476	      2.93450024	     -4.20120958	      6.15003786	      0.10733841	      1.96601784	    -21.40641591	     -7.49999987	      1.80932929	     -2.54750381	      9.21369624	      1.03622057	      0.01808546	      8.87926267	     -9.13188038	     -7.49999987	      7.23310240	     -6.59514743	     -3.62951850	    131.76648645	    -49.46722658	     51.35219490	     66.58929836	     77.15809882	     -2.42194385	    -11.13029230	     26.71165065	     20.96223996	     57.56908589
      1.72916670	     -6.03362152	     -2.82915735	      1.56979602	     -0.89183095	      1.25897462	     -0.10182784	      4.72996256	      2.84328591	     -3.98825398	      5.99989779	      0.10471797	      1.93020950	    -21.33262182	     -7.49999987	      1.94286894	     -2.43059237	      9.21820672	      1.04285182	      0.01820120	      8.73249063	     -9.54818409	     -7.49999987	      7.44784458	     -6.70398354	     -3.77795427	    128.83602469	    -50.28710056	     47.99061756	     69.85288763	     76.76497884	     -2.48509504	    -11.20969096	     27.17301730	     20.55730212	     57.59941023
      1.73333330	     -5.72552854	     -2.77361849	      1.47660745	     -0.89287358	      1.25851863	     -0.10187719	      4.32091374	      2.72927923	     -4.20780822	      5.80460026	      0.10130939	      2.23287156	    -20.53944065	     -7.49999987	      1.52659405	     -2.35904713	      8.53402971	      0.96249498	      0.01679871	      9.03382734	     -8.51812823	     -7.49999987	      6.90955751	     -6.71127416	     -4.14648117	    126.60137268	    -50.65922079	     45.44206489	     72.58969387	     73.36310835	     -2.89496701	    -11.42524592	     25.98844188	     21.45316216	     57.76760503
      1.73750000	     -6.09000768	     -2.71105474	      1.43181310	     -0.89312618	      1.25447519	     -0.10346045	      4.78457567	      2.61732587	     -3.79550698	      5.76358213	      0.10059348	      1.94558021	    -21.01824714	     -7.49999987	      1.92002226	     -2.23714286	      8.95738221	      1.00119714	      0.01747419	      8.67089160	     -9.50785126	     -7.49999987	      7.55589785	     -6.77759049	     -3.96344906	    123.97945680	    -51.22535657	     42.51350901	     74.78139489	     78.36898600	     -2.49717996	    -11.52339847	     28.48036448	     20.38737824	     57.80754510
      1.74166670	     -5.96244087	     -2.67106709	      1.40665721	     -0.89343447	      1.25379358	     -0.10290510	      4.64983330	      2.53665501	     -3.86154870	      5.64986698	      0.09860878	      2.40782318	    -20.19458343	     -7.49999987	      1.74813708	     -2.18632831	      8.78968202	      0.96626190	      0.01686445	      8.84257876	     -9.13788108	     -7.49999987	      7.25677181	     -6.73683126	     -4.32454495	    122.37744440	    -51.46014790	     41.15156911	     76.83919742	     74.45194381	     -2.96576291	    -11.66482490	     27.04182938	     21.34411959	     57.77620198
      1.74583330	     -6.04624386	     -2.63674233	      1.40225166	     -0.89547204	      1.25241040	     -0.10474631	      4.83039369	      2.43555627	     -3.60100825	      5.67925808	      0.09912175	      2.46650795	    -20.23158449	     -7.49999987	      1.87501033	     -2.10221759	      9.00010473	      0.95694397	      0.01670182	      8.90711734	     -9.25256961	     -7.49999987	      7.24757203	     -6.63546800	     -4.48893049	    121.04683261	    -51.70357013	     40.20013102	     78.53908390	     73.01541024	     -3.01057483	    -11.68472419	     26.58721083	     21.44540399	     57.93485892
      1.75000000	     -6.31668993	     -2.60314126	      1.36631694	     -0.89602538	      1.25154740	     -0.10327624	      5.26291346	      2.40819031	     -3.22657702	      5.85028819	      0.10210679	      2.55956544	    -20.35196808	     -7.49999987	      2.24598606	     -2.02373198	      9.29144945	      0.99131116	      0.01730164	      8.79366284	     -9.63871956	     -7.49999987	      7.63065351	     -6.66762046	     -4.05333343	    119.44358790	    -52.59358201	     38.52104332	     80.39004188	     77.89807503	     -2.37564037	    -11.85662824	     29.49728040	     20.50547529	     56.84370963
      1.75416670	     -6.40390010	     -2.56077495	      1.34989434	     -0.89560873	      1.25788958	     -0.10294545	      5.43275040	      2.37661799	     -2.98493329	      5.92661548	      0.10343895	      2.72062963	    -20.01870015	     -7.49999987	      2.38574388	     -1.96812560	      9.35429684	      0.98617238	      0.01721195	      8.65532838	     -9.59957421	     -7.49999987	      7.62679228	     -6.76990383	     -3.99252757	    117.30447557	    -53.50350577	     36.77134260	     82.81117729	     77.46282303	     -2.21098000	    -12.00727306	     29.99310064	     20.20495584	     56.80899919
      1.75833330	     -6.30770083	     -2.54869691	      1.30664225	     -0.89651837	      1.25143566	     -0.10348480	      5.38793847	      2.32209003	     -3.23313130	      6.05912801	      0.10575173	      2.89145137	    -19.77711695	     -7.49999987	      2.35285040	     -1.93407994	      9.31890163	      1.01870367	      0.01777973	      8.71189704	     -9.34976813	     -7.49999987	      7.36287046	     -6.65862501	     -4.34989422	    115.73019818	    -53.38431191	     35.57414382	     84.18038858	     76.41628957	     -2.33942766	    -12.09089426	     29.66007067	     20.36287371	     56.89494723
      1.76250000	     -6.46355125	     -2.50839044	      1.10481075	     -0.89529269	      1.25278991	     -0.10253835	      5.61060748	      2.31794739	     -2.90318327	      6.24220312	      0.10894700	      2.52919142	    -20.32496031	     -7.49999987	      2.54107091	     -1.90137741	      9.38256987	      1.06262143	      0.01854624	      8.51102785	     -9.63972817	     -7.49999987	      7.57764668	     -6.76493105	     -4.34694814	    113.22124510	    -53.93054472	     33.63072596	     86.31453413	     74.82368519	     -2.40105457	    -12.32903060	     30.25891356	     20.27114435	     57.30536404
      1.76666670	     -6.28702948	     -2.52333304	      0.97887577	     -0.89672864	      1.25110335	     -0.10341308	      5.43156432	      2.31002770	     -3.14777230	      6.36079613	      0.11101684	      2.75341165	    -19.94983565	     -7.49999987	      2.38902622	     -1.91774713	      9.10268587	      1.11581897	      0.01947471	      8.75866368	     -9.15275539	     -7.49999987	      7.17908223	     -6.58465401	     -4.76543177	    111.76872937	    -53.80641599	     32.61937900	     88.04414869	     72.97733381	     -2.77319143	    -12.58084529	     29.80687416	     21.17422592	     57.50479277
      1.77083330	     -6.54225045	     -2.50961964	      0.83019235	     -0.89682586	      1.25120393	     -0.10270844	      5.81892208	      2.31184805	     -2.96653768	      6.63819683	      0.11585839	      2.30939776	    -20.81497012	     -7.49999987	      2.74787112	     -1.89015560	      9.31895219	      1.24302131	      0.02169481	      8.50805697	     -9.81889572	     -7.49999987	      7.58267715	     -6.69534850	     -4.31714895	    109.05793855	    -54.74486206	     30.22459466	     90.36426083	     74.74279807	     -2.18718503	    -12.74572642	     32.54987264	     20.16642672	     57.49030217
      1.77500000	     -6.63455070	     -2.51587692	      0.67142673	     -0.89704582	      1.25192922	     -0.10321240	      6.02496479	      2.30833622	     -2.97990485	      6.83011965	      0.11920808	      2.31402704	    -20.99469866	     -7.49999987	      2.89539531	     -1.88264533	      9.34858253	      1.31631178	      0.02297397	      8.55564759	     -9.93913814	     -7.49999987	      7.55683220	     -6.62159439	     -4.39416871	    106.96112084	    -55.04789608	     28.64334177	     92.38179779	     73.37228790	     -2.30691298	    -12.80865102	     32.02937835	     20.29372072	     57.25204540
      1.77916670	     -6.73947235	     -2.52694485	      0.56507245	     -0.89633860	      1.25250058	     -0.10356253	      6.20570820	      2.29532266	     -2.93693816	      6.94906087	      0.12128399	      2.18792865	    -21.28300791	     -7.49999987	      3.06999601	     -1.88522166	      9.43345852	      1.39784569	      0.02439701	      8.49069065	    -10.19157096	     -7.49999987	      7.58851007	     -6.62492488	     -4.52421181	    104.47226243	    -55.29465622	     26.58874878	     94.28492627	     72.30340414	     -2.42530199	    -12.93691573	     31.93537701	     20.30378603	     57.29123826
